<?xml version="1.0" encoding="UTF-8"?>
<!DOCTYPE svg PUBLIC "-//W3C//DTD SVG 1.1//EN" "http://www.w3.org/Graphics/SVG/1.1/DTD/svg11.dtd">
<svg version="1.1" xmlns="http://www.w3.org/2000/svg" xmlns:xlink="http://www.w3.org/1999/xlink" x="0" y="0" width="1162" height="1077" viewBox="0, 0, 1162, 1077">
  <g id="Sky">
    <path d="M1038.853,516 C1050,-114 247,-161 192.853,516 z" fill="#328EE1"/>
  </g>
  <g id="Back_Cityscape">
    <path d="M655.166,360.667 C655.166,351.735 647.169,343.616 637.304,343.616 L637.304,333.873 L621.388,333.873 L621.388,343.616 C611.523,343.616 603.525,351.735 603.525,360.667 L603.525,377.717 C586.475,384.213 570.236,402.887 570.236,421.562 L565.364,421.562 L565.364,429.681 L554.809,429.681 L554.809,448.355 L397.294,448.355 L397.294,444.296 L364.005,444.296 L364.005,377.717 L320.973,377.717 L320.973,402.887 L294.991,402.887 L294.991,437.8 L278.752,437.8 L278.752,415.878 L249.523,415.878 L249.523,434.553 L193.499,434.552 L193.499,526.301 L1042.781,526.301 L1047.652,415.878 L1024.918,407.759 L1001.372,429.681 L1001.372,453.227 L992.441,453.227 L992.441,434.552 L965.647,433.741 L965.647,407.759 L955.092,407.759 L955.092,393.144 L898.257,393.144 L898.257,415.878 L882.018,415.878 L882.018,429.681 L734.247,429.681 L734.247,421.562 L713.136,421.562 L713.136,429.681 L693.327,429.681 L693.327,421.562 L688.455,421.562 C688.455,402.887 672.217,384.213 655.166,377.717 L655.166,360.667" fill="#000000"/>
  </g>
  <g id="Mid_Cityscape">
    <path d="M242.868,493.512 L286.56,493.512" fill-opacity="0" stroke="#ADADAD" stroke-width="6"/>
    <path d="M286.56,496.55 L286.56,483.768" fill-opacity="0" stroke="#ADADAD" stroke-width="17"/>
    <path d="M278.201,483.768 L330.38,483.768" fill-opacity="0" stroke="#ADADAD" stroke-width="6"/>
    <path d="M317.413,483.768 L317.413,496.916" fill-opacity="0" stroke="#ADADAD" stroke-width="26"/>
    <path d="M317.413,493.512 L352.871,493.512" fill-opacity="0" stroke="#ADADAD" stroke-width="7"/>
    <path d="M417.687,480.218 L483.764,480.218" fill-opacity="0" stroke="#ADADAD" stroke-width="17"/>
    <g>
      <path d="M493.319,519.865 L493.319,373.275 L505.722,373.275 L505.722,353.147 L529.103,353.147 L529.103,371.852 L529.103,373.275 L544.555,373.275 L544.555,519.865" fill="#ADADAD"/>
      <path d="M493.319,519.865 L493.319,373.275 L505.722,373.275 L505.722,353.147 L529.103,353.147 L529.103,371.852 L529.103,373.275 L544.555,373.275 L544.555,519.865" fill-opacity="0" stroke="#000000" stroke-width="4"/>
    </g>
    <path d="M510.131,487.791 L510.007,516.5" fill-opacity="0" stroke="#000000" stroke-width="6"/>
    <path d="M493.32,515.865 L544.555,515.865" fill-opacity="0" stroke="#000000" stroke-width="3"/>
    <path d="M527.827,487.791 L527.703,516.5" fill-opacity="0" stroke="#000000" stroke-width="6"/>
    <path d="M510.069,460.5 L510.069,467.219" fill-opacity="0" stroke="#000000" stroke-width="6"/>
    <path d="M510.069,445.5 L510.069,452.219" fill-opacity="0" stroke="#000000" stroke-width="6"/>
    <path d="M510.069,430.5 L510.069,437.219" fill-opacity="0" stroke="#000000" stroke-width="6"/>
    <path d="M510.069,415.5 L510.069,422.219" fill-opacity="0" stroke="#000000" stroke-width="6"/>
    <path d="M510.069,400.5 L510.069,407.219" fill-opacity="0" stroke="#000000" stroke-width="6"/>
    <path d="M510.069,385.5 L510.069,392.219" fill-opacity="0" stroke="#000000" stroke-width="6"/>
    <path d="M527.765,460.5 L527.765,467.219" fill-opacity="0" stroke="#000000" stroke-width="6"/>
    <path d="M527.765,445.5 L527.765,452.219" fill-opacity="0" stroke="#000000" stroke-width="6"/>
    <path d="M527.765,430.5 L527.765,437.219" fill-opacity="0" stroke="#000000" stroke-width="6"/>
    <path d="M527.765,415.5 L527.765,422.219" fill-opacity="0" stroke="#000000" stroke-width="6"/>
    <path d="M527.765,400.5 L527.765,407.219" fill-opacity="0" stroke="#000000" stroke-width="6"/>
    <path d="M527.765,385.5 L527.765,392.219" fill-opacity="0" stroke="#000000" stroke-width="6"/>
    <path d="M547.109,476.086 L662.964,476.086 L662.964,493.875 L631.947,493.875 C631.947,490.238 629.395,487.291 626.246,487.291 L583.827,487.291 C580.678,487.291 578.125,490.238 578.125,493.875 L547.109,493.875" fill="#ADADAD"/>
    <path d="M553.957,484.831 L553.957,491.55" fill-opacity="0" stroke="#000000" stroke-width="6"/>
    <path d="M566.957,484.831 L566.957,491.55" fill-opacity="0" stroke="#000000" stroke-width="6"/>
    <path d="M647.462,484.831 L647.462,491.55" fill-opacity="0" stroke="#000000" stroke-width="6"/>
    <path d="M885.593,493.512 L962.221,494.375" fill-opacity="0" stroke="#ADADAD" stroke-width="21"/>
    <path d="M948.766,471.112 L948.766,496.55" fill-opacity="0" stroke="#ADADAD" stroke-width="27"/>
    <path d="M941.784,504.865 L941.784,484.831" fill-opacity="0" stroke="#000000" stroke-width="8" stroke-linecap="round"/>
    <path d="M955.741,504.865 L955.741,484.831" fill-opacity="0" stroke="#000000" stroke-width="8" stroke-linecap="round"/>
    <g>
      <path d="M684.673,484.831 L846.139,484.831 L846.139,508.514 L684.673,508.514 L684.673,484.831 z" fill="#ADADAD"/>
      <path d="M684.673,484.831 L846.139,484.831 L846.139,508.514 L684.673,508.514 L684.673,484.831 z" fill-opacity="0" stroke="#000000" stroke-width="3"/>
    </g>
    <g>
      <path d="M749.898,400.5 L807.141,400.5 L807.141,483.768 L749.898,483.768 L749.898,400.5 z" fill="#ADADAD"/>
      <path d="M749.898,400.5 L807.141,400.5 L807.141,483.768 L749.898,483.768 L749.898,400.5 z" fill-opacity="0" stroke="#000000" stroke-width="3"/>
    </g>
    <g>
      <path d="M758.45,342.943 L798.589,342.943 L798.589,400.5 L758.45,400.5 L758.45,342.943 z" fill="#ADADAD"/>
      <path d="M758.45,342.943 L798.589,342.943 L798.589,400.5 L758.45,400.5 L758.45,342.943 z" fill-opacity="0" stroke="#000000" stroke-width="3"/>
    </g>
    <g>
      <path d="M768.029,308.506 L789.01,308.506 L789.01,342.943 L768.029,342.943 L768.029,308.506 z" fill="#ADADAD"/>
      <path d="M768.029,308.506 L789.01,308.506 L789.01,342.943 L768.029,342.943 L768.029,308.506 z" fill-opacity="0" stroke="#000000" stroke-width="3"/>
    </g>
    <path d="M695,490.682 L708.227,490.682 L708.227,497.523 L695,497.523 L695,490.682 z" fill="#000000"/>
    <path d="M720,490.682 L733.227,490.682 L733.227,497.523 L720,497.523 L720,490.682 z" fill="#000000"/>
    <path d="M745,490.682 L758.227,490.682 L758.227,497.523 L745,497.523 L745,490.682 z" fill="#000000"/>
    <path d="M770,490.682 L783.227,490.682 L783.227,497.523 L770,497.523 L770,490.682 z" fill="#000000"/>
    <path d="M795,490.682 L808.227,490.682 L808.227,497.523 L795,497.523 L795,490.682 z" fill="#000000"/>
    <path d="M820,490.682 L833.227,490.682 L833.227,497.523 L820,497.523 L820,490.682 z" fill="#000000"/>
    <path d="M764.634,452.727 L764.634,482.603" fill-opacity="0" stroke="#000000" stroke-width="8"/>
    <path d="M779.464,452.727 L779.464,482.603" fill-opacity="0" stroke="#000000" stroke-width="8"/>
    <path d="M793.463,452.727 L793.463,482.603" fill-opacity="0" stroke="#000000" stroke-width="8"/>
    <path d="M764.634,437.535 L764.634,444.833" fill-opacity="0" stroke="#000000" stroke-width="8"/>
    <path d="M779.464,437.535 L779.464,444.833" fill-opacity="0" stroke="#000000" stroke-width="8"/>
    <path d="M793.007,437.535 L793.007,444.833" fill-opacity="0" stroke="#000000" stroke-width="8"/>
    <path d="M764.634,422.202 L764.634,429.5" fill-opacity="0" stroke="#000000" stroke-width="8"/>
    <path d="M764.634,408.202 L764.634,415.5" fill-opacity="0" stroke="#000000" stroke-width="8"/>
    <path d="M779.464,422.202 L779.464,429.5" fill-opacity="0" stroke="#000000" stroke-width="8"/>
    <path d="M793.007,422.202 L793.007,429.5" fill-opacity="0" stroke="#000000" stroke-width="8"/>
    <path d="M779.464,408.202 L779.464,415.5" fill-opacity="0" stroke="#000000" stroke-width="8"/>
    <path d="M793.007,408.202 L793.007,415.5" fill-opacity="0" stroke="#000000" stroke-width="8"/>
    <path d="M770.5,385.5 L770.5,392.798" fill-opacity="0" stroke="#000000" stroke-width="8"/>
    <path d="M785.481,385.5 L785.481,392.798" fill-opacity="0" stroke="#000000" stroke-width="8"/>
    <path d="M770.5,368 L770.5,375.298" fill-opacity="0" stroke="#000000" stroke-width="8"/>
    <path d="M770.5,350.5 L770.5,357.798" fill-opacity="0" stroke="#000000" stroke-width="8"/>
    <path d="M785.481,368 L785.481,375.298" fill-opacity="0" stroke="#000000" stroke-width="8"/>
    <path d="M785.481,350.5 L785.481,357.798" fill-opacity="0" stroke="#000000" stroke-width="8"/>
  </g>
  <g id="Grass">
    <path d="M1030.853,516 C932.853,984 228.853,972 184.853,516 z" fill="#328E32"/>
  </g>
  <g id="Rope">
    <g>
      <path d="M684.468,768.716 C670.365,751.74 633.124,751.633 598.11,759.271 C598.11,759.271 534.021,770.404 519.779,757.567 C493.883,734.226 523.544,723.968 532.774,720.111 C542.746,715.943 604.539,707.318 690.245,710.937 C723.279,712.332 720.571,723.766 697.889,730.048 C659.772,740.605 658.646,748.045 690.245,757.567 C695.339,759.102 736.555,769.041 784.363,762.607" fill-opacity="0" stroke="#000000" stroke-width="7"/>
      <path d="M692.904,777.523 C691.437,780.86 687.543,782.375 684.206,780.909 C680.869,779.442 679.353,775.547 680.82,772.21 C682.287,768.874 686.181,767.358 689.518,768.825 C692.855,770.292 694.371,774.186 692.904,777.523" fill="#000000" fill-opacity="1" stroke="#000000" stroke-width="7" stroke-opacity="1"/>
      <path d="M794.675,756.097 C797.653,758.2 798.362,762.318 796.259,765.295 C794.156,768.273 790.037,768.982 787.06,766.879 C784.083,764.776 783.374,760.657 785.477,757.68 C787.58,754.703 791.698,753.994 794.675,756.097" fill="#000000" fill-opacity="1" stroke="#000000" stroke-width="7" stroke-opacity="1"/>
    </g>
  </g>
  <g id="Dumbbell">
    <g>
      <g>
        <path d="M686.332,616.451 L743.082,616.451 L743.082,671.327 L686.332,671.327 L686.332,616.451 z" fill="#000000"/>
        <path d="M686.332,616.451 L743.082,616.451 L743.082,671.327 L686.332,671.327 L686.332,616.451 z" fill-opacity="0" stroke="#000000" stroke-width="7"/>
      </g>
      <path d="M675.338,627.531 L686.332,616.451" fill-opacity="0" stroke="#000000" stroke-width="10"/>
      <g>
        <path d="M675.338,627.531 L732.087,627.531 L732.087,682.407 L675.338,682.407 L675.338,627.531 z" fill="#FFFFFF"/>
        <path d="M675.338,627.531 L732.087,627.531 L732.087,682.407 L675.338,682.407 L675.338,627.531 z" fill-opacity="0" stroke="#000000" stroke-width="7"/>
      </g>
      <path d="M732.087,682.407 L743.082,671.327" fill-opacity="0" stroke="#000000" stroke-width="10"/>
    </g>
    <g>
      <path d="M608.809,705.414 L702.582,650.805 L709.639,662.924 L615.866,717.533 L608.809,705.414 z" fill="#FFFFFF"/>
      <path d="M608.809,705.414 L702.582,650.805 L709.639,662.924 L615.866,717.533 L608.809,705.414 z" fill-opacity="0" stroke="#000000" stroke-width="7" stroke-linejoin="round"/>
    </g>
    <g>
      <path d="M594.59,666.579 L652.903,666.579 L652.903,723.785 L594.59,723.785 L594.59,666.579 z" fill="#000000"/>
      <path d="M594.59,666.579 L652.903,666.579 L652.903,723.785 L594.59,723.785 L594.59,666.579 z" fill-opacity="0" stroke="#000000" stroke-width="7"/>
    </g>
    <path d="M583.292,678.129 L594.59,666.579" fill-opacity="0" stroke="#000000" stroke-width="10"/>
    <g>
      <path d="M583.292,678.129 L641.605,678.129 L641.605,735.335 L583.292,735.335 L583.292,678.129 z" fill="#FFFFFF"/>
      <path d="M583.292,678.129 L641.605,678.129 L641.605,735.335 L583.292,735.335 L583.292,678.129 z" fill-opacity="0" stroke="#000000" stroke-width="7"/>
    </g>
    <path d="M641.605,735.335 L652.903,723.785" fill-opacity="0" stroke="#000000" stroke-width="10"/>
  </g>
  <g id="Gate">
    <g>
      <path d="M379.731,637.791 L323.826,679.72 L459.116,722.208 L408.802,646.736 L408.802,188.875 L379.731,203.41 L379.731,637.791" fill="#FFFFFF"/>
      <path d="M379.731,637.791 L323.826,679.72 L459.116,722.208 L408.802,646.736 L408.802,188.875 L379.731,203.41 L379.731,637.791" fill-opacity="0" stroke="#000000" stroke-width="4"/>
    </g>
    <path d="M379.731,637.791 L379.731,697.61" fill-opacity="0" stroke="#000000" stroke-width="4"/>
    <path d="M408.802,646.736 L408.789,706.748" fill-opacity="0" stroke="#000000" stroke-width="4"/>
    <g>
      <path d="M426.683,199.445 L412.684,189.506 L408.802,646.736 L463.916,723.21 L475.464,715.476 L425.832,642.692 L425.832,198.031" fill="#000000"/>
      <path d="M426.683,199.445 L412.684,189.506 L408.802,646.736 L463.916,723.21 L475.464,715.476 L425.832,642.692 L425.832,198.031" fill-opacity="0" stroke="#000000" stroke-width="4"/>
    </g>
    <g>
      <path d="M824.554,594.304 L766.955,633.709 L906.345,673.639 L854.505,602.711 L854.505,172.413 L824.554,186.073 L824.553,594.304" fill="#FFFFFF"/>
      <path d="M824.554,594.304 L766.955,633.709 L906.345,673.639 L854.505,602.711 L854.505,172.413 L824.554,186.073 L824.553,594.304" fill-opacity="0" stroke="#000000" stroke-width="4"/>
    </g>
    <path d="M824.553,594.304 L824.554,650.521" fill-opacity="0" stroke="#000000" stroke-width="4"/>
    <path d="M854.505,602.711 L854.492,659.11" fill-opacity="0" stroke="#000000" stroke-width="4"/>
    <g>
      <path d="M872.929,182.347 L858.505,173.007 L854.505,602.711 L911.29,674.58 L923.188,667.312 L872.052,598.91 L872.052,181.018" fill="#000000"/>
      <path d="M872.929,182.347 L858.505,173.007 L854.505,602.711 L911.29,674.58 L923.188,667.312 L872.052,598.91 L872.052,181.018" fill-opacity="0" stroke="#000000" stroke-width="4"/>
    </g>
    <g>
      <path d="M332.292,282.267 L917.466,222.525 L920.617,253.383 L335.443,313.125 L332.292,282.267 z" fill="#FFFFFF"/>
      <path d="M332.292,282.267 L917.466,222.525 L920.617,253.383 L335.443,313.125 L332.292,282.267 z" fill-opacity="0" stroke="#000000" stroke-width="4"/>
    </g>
    <g>
      <path d="M335.966,281.91 L359.923,279.638 L362.706,308.99 L338.749,311.262 L335.966,281.91 z" fill="#000000"/>
      <path d="M335.966,281.91 L359.923,279.638 L362.706,308.99 L338.749,311.262 L335.966,281.91 z" fill-opacity="0" stroke="#000000" stroke-width="4"/>
    </g>
    <g>
      <path d="M389.565,276.632 L413.522,274.361 L416.306,303.713 L392.349,305.985 L389.565,276.632 z" fill="#000000"/>
      <path d="M389.565,276.632 L413.522,274.361 L416.306,303.713 L392.349,305.985 L389.565,276.632 z" fill-opacity="0" stroke="#000000" stroke-width="4"/>
    </g>
    <g>
      <path d="M443.424,270.581 L467.381,268.309 L470.164,297.661 L446.207,299.933 L443.424,270.581 z" fill="#000000"/>
      <path d="M443.424,270.581 L467.381,268.309 L470.164,297.661 L446.207,299.933 L443.424,270.581 z" fill-opacity="0" stroke="#000000" stroke-width="4"/>
    </g>
    <g>
      <path d="M497.888,266.345 L521.845,264.073 L524.628,293.425 L500.671,295.697 L497.888,266.345 z" fill="#000000"/>
      <path d="M497.888,266.345 L521.845,264.073 L524.628,293.425 L500.671,295.697 L497.888,266.345 z" fill-opacity="0" stroke="#000000" stroke-width="4"/>
    </g>
    <g>
      <path d="M549.931,261.504 L573.888,259.232 L576.671,288.584 L552.714,290.856 L549.931,261.504 z" fill="#000000"/>
      <path d="M549.931,261.504 L573.888,259.232 L576.671,288.584 L552.714,290.856 L549.931,261.504 z" fill-opacity="0" stroke="#000000" stroke-width="4"/>
    </g>
    <g>
      <path d="M603.04,254.285 L626.997,252.013 L629.78,281.365 L605.823,283.637 L603.04,254.285 z" fill="#000000"/>
      <path d="M603.04,254.285 L626.997,252.013 L629.78,281.365 L605.823,283.637 L603.04,254.285 z" fill-opacity="0" stroke="#000000" stroke-width="4"/>
    </g>
    <g>
      <path d="M656.412,249.286 L680.369,247.014 L683.152,276.366 L659.195,278.638 L656.412,249.286 z" fill="#000000"/>
      <path d="M656.412,249.286 L680.369,247.014 L683.152,276.366 L659.195,278.638 L656.412,249.286 z" fill-opacity="0" stroke="#000000" stroke-width="4"/>
    </g>
    <g>
      <path d="M709.086,245.008 L733.043,242.736 L735.826,272.089 L711.869,274.361 L709.086,245.008 z" fill="#000000"/>
      <path d="M709.086,245.008 L733.043,242.736 L735.826,272.089 L711.869,274.361 L709.086,245.008 z" fill-opacity="0" stroke="#000000" stroke-width="4"/>
    </g>
    <g>
      <path d="M763.129,238.957 L787.086,236.685 L789.87,266.037 L765.913,268.309 L763.129,238.957 z" fill="#000000"/>
      <path d="M763.129,238.957 L787.086,236.685 L789.87,266.037 L765.913,268.309 L763.129,238.957 z" fill-opacity="0" stroke="#000000" stroke-width="4"/>
    </g>
    <g>
      <path d="M814.988,234.721 L838.945,232.449 L841.728,261.801 L817.771,264.073 L814.988,234.721 z" fill="#000000"/>
      <path d="M814.988,234.721 L838.945,232.449 L841.728,261.801 L817.771,264.073 L814.988,234.721 z" fill-opacity="0" stroke="#000000" stroke-width="4"/>
    </g>
    <g>
      <path d="M867.636,228.879 L891.593,226.607 L894.377,255.96 L870.419,258.232 L867.636,228.879 z" fill="#000000"/>
      <path d="M867.636,228.879 L891.593,226.607 L894.377,255.96 L870.419,258.232 L867.636,228.879 z" fill-opacity="0" stroke="#000000" stroke-width="4"/>
    </g>
  </g>
  <g id="Ribbon">
    <g>
      <path d="M1095.52,866.917 C1107.078,857.52 1119.823,850.237 1136.52,853.917 L993.52,764.917 C987.52,762.917 976.52,747.917 953.52,770.917 C796.52,938.917 431.52,979.917 226.52,700.917 C207.52,673.917 197.52,681.917 171.52,690.917 L32.48,744.817 C43.587,742.267 53.783,747.73 57.52,756.917 C289.52,1133.917 811.52,1170.917 1095.52,866.917" fill="#B8B065"/>
      <path d="M1095.52,866.917 C1107.078,857.52 1119.823,850.237 1136.52,853.917 L993.52,764.917 C987.52,762.917 976.52,747.917 953.52,770.917 C796.52,938.917 431.52,979.917 226.52,700.917 C207.52,673.917 197.52,681.917 171.52,690.917 L32.48,744.817 C43.587,742.267 53.783,747.73 57.52,756.917 C289.52,1133.917 811.52,1170.917 1095.52,866.917" fill-opacity="0" stroke="#000000" stroke-width="8"/>
    </g>
    <g>
      <path d="M32.48,744.817 C14.888,752.609 4.438,764.617 4.438,792.32 C4.438,800.158 16.978,807.995 25.338,802.77 L68.184,778.212 L52.508,754.177 L32.48,744.817" fill="#000000"/>
      <path d="M32.48,744.817 C14.888,752.609 4.438,764.617 4.438,792.32 C4.438,800.158 16.978,807.995 25.338,802.77 L68.184,778.212 L52.508,754.177 L32.48,744.817" fill-opacity="0" stroke="#000000" stroke-width="8"/>
    </g>
    <path d="M1094.94,867.453 L1099.957,863.545" fill-opacity="0" stroke="#000000" stroke-width="8"/>
    <g>
      <path d="M1155.557,908.63 C1162.5,878.763 1154.673,859.677 1133.996,852.961 C1125.407,852.961 1092.289,870.67 1092.289,873.5 L1138.061,905.095 C1143.009,908.63 1153.966,916.582 1156.087,907.216" fill="#000000"/>
      <path d="M1155.557,908.63 C1162.5,878.763 1154.673,859.677 1133.996,852.961 C1125.407,852.961 1092.289,870.67 1092.289,873.5 L1138.061,905.095 C1143.009,908.63 1153.966,916.582 1156.087,907.216" fill-opacity="0" stroke="#000000" stroke-width="8"/>
    </g>
  </g>
  <g id="Primary_Ring">
    <path d="M620.747,873.5 C379.894,873.5 184.644,686.141 184.644,455.023 C184.644,223.904 379.894,36.546 620.747,36.546 C861.599,36.546 1056.849,223.904 1056.849,455.023 C1056.849,686.141 861.599,873.5 620.747,873.5 z" fill-opacity="0" stroke="#000000" stroke-width="66"/>
  </g>
  <g id="Text">
    <g>
      <path d="M273.15,829.728 Q282.172,818.254 268.179,807.252 L273.019,801.095 L321.715,839.381 L316.875,845.538 Q305.26,836.406 296.569,847.461 L262.904,890.28 Q257.294,897.416 250.299,901.993 Q243.304,906.57 235.701,908.177 Q228.097,909.784 220.41,908.042 Q212.722,906.3 205.726,900.8 Q201.948,897.829 198.74,893.269 Q195.532,888.71 193.794,883.72 Q192.056,878.731 192.292,873.822 Q192.529,868.914 195.499,865.136 Q198.69,861.078 203.419,859.814 Q208.148,858.551 212.206,861.742 Q219.342,867.352 214.172,873.929 Q208.891,880.646 204.413,877.125 Q203.574,876.465 202.394,875.085 Q201.534,878.484 203.122,882.224 Q204.71,885.963 208.629,889.044 Q212.547,892.124 216.861,891.101 Q221.175,890.077 225.485,886.899 Q229.795,883.721 233.815,879.184 Q237.836,874.646 241.026,870.588 z" fill="#000000"/>
      <path d="M436.752,1013.836 Q445.787,1016.55 452.736,1014.456 Q459.684,1012.361 465.031,1006.626 Q470.378,1000.891 474.397,992.155 Q478.415,983.419 481.539,973.02 Q484.458,963.303 485.945,953.713 Q487.432,944.124 486.088,935.914 Q484.745,927.704 479.743,921.462 Q474.741,915.22 464.513,912.147 Q455.137,909.331 448.282,911.732 Q441.427,914.133 436.37,920.141 Q431.313,926.149 427.686,934.818 Q424.06,943.486 421.09,953.373 Q417.863,964.113 416.41,973.899 Q414.958,983.685 416.378,991.639 Q417.799,999.593 422.587,1005.306 Q427.376,1011.019 436.752,1013.836 z M511.1,980.414 Q506.747,994.904 498.815,1004.602 Q490.884,1014.3 480.507,1019.453 Q470.131,1024.607 457.957,1025.224 Q445.784,1025.842 432.828,1021.95 Q420.554,1018.263 410.812,1011.712 Q401.071,1005.161 395.184,995.68 Q389.297,986.198 388.023,973.735 Q386.749,961.271 391.359,945.928 Q396.019,930.415 403.806,920.581 Q411.592,910.746 421.696,905.883 Q431.8,901.019 443.649,900.861 Q455.498,900.704 468.113,904.494 Q480.558,908.232 490.452,915.201 Q500.347,922.169 506.353,931.872 Q512.359,941.576 513.88,953.835 Q515.402,966.094 511.1,980.414 z" fill="#000000"/>
      <path d="M678.928,1047.006 L677.956,1039.593 Q696.31,1037.186 694.366,1022.361 L683.904,942.588 Q683.21,937.294 675.974,938.243 Q670.503,938.96 666.775,941.334 Q663.047,943.708 660.621,947.796 Q658.195,951.884 656.894,957.71 Q655.594,963.535 654.977,971.156 L643.827,971.003 L643.63,931.174 Q648.312,931.278 653.829,930.914 Q659.346,930.549 662.523,930.133 L732.236,920.99 Q736.119,920.481 741.72,919.387 Q747.322,918.294 751.818,916.986 L756.887,955.637 L746.766,957.862 Q744.055,944.035 738.123,937.812 Q732.19,931.588 719.836,933.208 Q712.247,934.204 712.849,938.792 L723.31,1018.565 Q725.255,1033.39 743.962,1030.937 L744.934,1038.349 z" fill="#000000"/>
      <path d="M992.239,891.402 Q994.787,899.93 994.746,908.224 Q994.705,916.518 992.181,924.086 Q989.657,931.655 984.755,938.005 Q979.853,944.356 972.53,949.093 Q958.929,957.89 947.048,960.17 Q935.167,962.449 924.913,959.542 Q914.659,956.635 906.146,949.21 Q897.633,941.784 890.673,931.023 Q883.229,919.515 879.336,908.253 Q875.444,896.992 876.206,886.535 Q876.968,876.079 882.701,866.753 Q888.434,857.427 900.241,849.789 Q903.679,847.566 907.855,845.501 Q912.031,843.435 916.47,841.942 Q920.91,840.448 925.288,839.842 Q929.666,839.236 933.507,839.931 Q933.473,831.686 939.092,825.296 Q952.786,834.669 967.481,857.386 L957.019,864.154 Q943.421,851.326 932.666,848.955 Q921.911,846.584 911.001,853.641 Q903.378,858.572 900.771,865.028 Q898.163,871.485 898.927,878.728 Q899.69,885.972 903.236,893.748 Q906.782,901.524 911.519,908.848 Q917.996,918.861 924.799,926.757 Q931.602,934.652 938.898,939.048 Q946.193,943.445 953.991,943.701 Q961.788,943.957 970.158,938.544 Q981.068,931.486 984.375,920.867 Q987.682,910.249 984.266,893.168 z" fill="#000000"/>
    </g>
    <g>
      <path d="M84.644,773.246 L84.069,771.939 Q86.869,770.705 86.073,768.9 L79.985,755.087 Q78.956,752.753 75.938,754.083 L75.335,752.714 L93.193,744.843 L96.13,750.831 L94.301,751.824 Q93.266,750.236 92.333,749.551 Q91.4,748.866 90.468,748.776 Q89.536,748.685 88.537,749.032 Q87.538,749.379 86.356,749.9 Q85.329,750.353 84.9,750.895 Q84.47,751.438 84.717,751.998 L87.13,757.473 Q87.459,758.22 88.175,757.905 Q88.922,757.576 89.503,757.208 Q90.084,756.84 90.422,756.301 Q90.76,755.762 90.783,754.971 Q90.807,754.181 90.406,753.02 L92.211,752.224 L95.858,760.5 L94.054,761.296 Q93.494,760.279 92.989,759.722 Q92.483,759.164 91.943,758.993 Q91.403,758.823 90.757,758.959 Q90.111,759.095 89.258,759.434 Q88.241,759.993 88.57,760.74 L91.134,766.558 Q91.793,768.051 94.126,767.023 Q96.024,766.187 97.029,765.39 Q98.035,764.594 98.483,763.672 Q98.931,762.75 98.955,761.625 Q98.979,760.5 98.87,758.987 L100.753,758.454 L102.721,765.279 z" fill="#000000"/>
      <path d="M109.871,751.575 Q108.549,750.262 107.28,749.911 Q106.011,749.56 105.077,749.972 Q104.642,750.164 104.247,750.449 Q103.853,750.734 103.591,751.11 Q103.329,751.485 103.247,751.93 Q103.164,752.376 103.37,752.842 Q103.576,753.309 104.2,753.461 Q104.824,753.613 105.587,753.574 Q106.35,753.535 107.117,753.42 Q107.884,753.305 108.374,753.237 Q109.168,753.185 109.961,753.17 Q110.753,753.155 111.452,753.349 Q112.15,753.542 112.735,754.028 Q113.321,754.513 113.732,755.446 Q114.198,756.504 114.18,757.515 Q114.161,758.527 113.76,759.428 Q113.358,760.33 112.615,761.047 Q111.873,761.765 110.877,762.203 Q109.882,762.642 109.215,762.732 Q108.548,762.821 107.886,762.667 Q107.636,763.112 107.207,763.487 Q106.778,763.862 105.903,764.322 Q105.236,763.315 104.607,762.013 Q103.977,760.712 103.36,759.312 L104.823,758.667 Q105.627,759.65 106.276,760.237 Q106.925,760.824 107.537,761.075 Q108.149,761.325 108.785,761.249 Q109.42,761.174 110.198,760.831 Q112.5,759.816 111.935,758.282 Q111.551,757.411 110.801,757.184 Q110.051,756.957 109.105,757.003 Q108.159,757.048 107.078,757.209 Q105.997,757.369 104.996,757.29 Q103.995,757.211 103.128,756.72 Q102.262,756.229 101.699,754.953 Q100.918,753.18 101.605,751.409 Q102.292,749.639 104.657,748.597 Q105.341,748.295 106.01,748.167 Q106.678,748.04 107.465,748.139 Q107.614,747.888 107.905,747.536 Q108.196,747.185 108.791,746.849 Q109.623,747.894 110.152,748.924 Q110.68,749.955 111.146,751.012 z" fill="#000000"/>
      <path d="M125.604,751.105 Q126.002,752.007 125.897,752.908 Q125.792,753.809 125.327,754.608 Q124.862,755.408 124.092,756.063 Q123.322,756.718 122.389,757.13 Q121.642,757.459 120.891,757.567 Q120.14,757.675 119.439,757.519 Q118.739,757.364 118.167,756.91 Q117.596,756.456 117.239,755.647 L113.523,747.215 L111.532,748.093 L111.125,746.749 Q111.755,746.323 112.316,745.574 Q112.878,744.824 113.264,743.93 Q113.65,743.035 113.789,742.045 Q113.928,741.054 113.745,740.132 L114.938,739.383 L116.927,743.894 L119.135,742.921 Q119.478,742.77 119.872,742.485 Q120.267,742.199 120.585,741.91 L121.394,743.746 L117.598,745.419 L121.013,753.166 Q121.15,753.477 121.31,753.797 Q121.469,754.117 121.71,754.326 Q121.951,754.536 122.291,754.59 Q122.631,754.645 123.129,754.425 Q123.938,754.069 124.286,753.172 Q124.634,752.276 124.364,751.243 z" fill="#000000"/>
      <path d="M131.038,753.318 Q128.767,754.319 127.82,752.172 Q126.874,750.025 129.145,749.024 Q131.292,748.078 132.238,750.225 Q133.184,752.371 131.038,753.318 z" fill="#000000"/>
      <path d="M144.691,746.78 L144.115,745.473 Q145.95,744.664 146.607,743.836 Q147.264,743.007 146.88,742.136 L141.065,728.945 Q140.599,727.887 139.666,728.298 L136.928,729.505 L136.366,728.23 Q137.466,727.522 138.324,726.939 Q139.182,726.357 139.858,725.743 Q140.535,725.129 141.073,724.409 Q141.61,723.689 142.082,722.737 L144.148,722.198 Q144.444,723.629 144.801,724.437 L151.671,740.025 Q152.453,741.798 156.031,740.221 L156.606,741.528 z" fill="#000000"/>
      <path d="M164.857,727.116 Q164.508,728.347 163.616,729.316 Q162.724,730.285 161.542,730.807 Q160.577,731.232 159.339,731.331 Q158.101,731.431 156.872,731.044 Q155.642,730.657 154.539,729.713 Q153.435,728.769 152.708,727.12 Q151.831,725.129 151.781,723.497 Q151.73,721.866 152.333,720.579 Q152.936,719.291 154.109,718.328 Q155.283,717.365 156.869,716.666 Q158.612,715.898 160.292,715.789 Q161.971,715.68 163.471,716.301 Q164.971,716.922 166.253,718.271 Q167.535,719.619 168.467,721.735 Q169.742,724.628 170.062,727.293 Q170.382,729.957 169.795,732.166 Q169.208,734.376 167.795,736.058 Q166.381,737.74 164.203,738.7 Q161.185,740.03 160.198,737.79 Q159.622,736.483 160.898,735.921 Q161.955,735.454 162.367,736.388 Q162.545,736.792 162.519,737.324 Q163.041,737.243 163.632,736.982 Q164.503,736.598 165.137,735.761 Q165.772,734.924 166,733.672 Q166.228,732.419 165.973,730.786 Q165.717,729.152 164.857,727.116 z M162.299,728.057 Q163.108,727.701 163.46,727.193 Q163.812,726.685 163.809,725.961 Q163.806,725.238 163.502,724.295 Q163.197,723.351 162.663,722.138 Q162.059,720.769 161.534,719.83 Q161.009,718.891 160.439,718.399 Q159.869,717.907 159.186,717.874 Q158.502,717.841 157.569,718.253 Q156.76,718.609 156.417,719.095 Q156.073,719.58 156.107,720.29 Q156.141,720.999 156.491,721.96 Q156.84,722.921 157.402,724.197 Q157.951,725.441 158.447,726.356 Q158.943,727.27 159.497,727.769 Q160.051,728.268 160.724,728.362 Q161.397,728.455 162.299,728.057 z" fill="#000000"/>
      <path d="M178.329,709.548 Q177.794,709.598 177.265,709.831 Q176.488,710.174 175.893,710.975 Q175.298,711.776 175.098,713.09 Q174.897,714.405 175.174,716.215 Q175.452,718.024 176.418,720.385 Q176.736,719.168 177.642,718.23 Q178.547,717.292 179.792,716.743 Q180.85,716.277 182.043,716.16 Q183.236,716.043 184.339,716.355 Q185.443,716.667 186.395,717.437 Q187.348,718.206 187.937,719.544 Q188.856,721.628 188.944,723.262 Q189.032,724.895 188.454,726.153 Q187.875,727.411 186.71,728.352 Q185.546,729.292 183.99,729.978 Q179.883,731.788 177.082,730.533 Q174.281,729.278 172.444,725.109 Q171.155,722.185 170.89,719.478 Q170.626,716.77 171.255,714.487 Q171.883,712.203 173.321,710.492 Q174.759,708.781 176.874,707.848 Q179.674,706.614 180.621,708.761 Q181.224,710.13 179.948,710.692 Q178.891,711.158 178.466,710.194 Q178.301,709.82 178.329,709.548 z M183.263,728.329 Q184.041,727.986 184.366,727.416 Q184.69,726.846 184.656,726.136 Q184.622,725.427 184.343,724.583 Q184.065,723.74 183.653,722.807 Q182.597,720.411 181.552,719.516 Q180.507,718.62 178.859,719.347 Q178.019,719.717 177.66,720.21 Q177.301,720.702 177.299,721.372 Q177.297,722.042 177.598,722.893 Q177.899,723.745 178.379,724.834 Q178.777,725.737 179.24,726.535 Q179.704,727.334 180.279,727.88 Q180.854,728.425 181.592,728.583 Q182.33,728.741 183.263,728.329 z" fill="#000000"/>
      <path d="M199.235,711.963 Q198.886,713.195 197.994,714.164 Q197.103,715.133 195.92,715.654 Q194.956,716.079 193.718,716.179 Q192.48,716.278 191.25,715.891 Q190.021,715.504 188.917,714.56 Q187.814,713.616 187.087,711.967 Q186.209,709.976 186.159,708.345 Q186.109,706.713 186.712,705.426 Q187.315,704.138 188.488,703.175 Q189.661,702.212 191.248,701.513 Q192.99,700.745 194.67,700.636 Q196.35,700.528 197.85,701.148 Q199.35,701.769 200.631,703.118 Q201.913,704.466 202.846,706.582 Q204.121,709.475 204.441,712.14 Q204.761,714.804 204.174,717.013 Q203.587,719.223 202.173,720.905 Q200.76,722.587 198.582,723.547 Q195.564,724.877 194.577,722.637 Q194.001,721.33 195.276,720.768 Q196.334,720.302 196.745,721.235 Q196.924,721.639 196.898,722.171 Q197.419,722.09 198.011,721.829 Q198.882,721.445 199.516,720.608 Q200.15,719.771 200.379,718.519 Q200.607,717.266 200.351,715.633 Q200.096,713.999 199.235,711.963 z M196.678,712.905 Q197.487,712.548 197.839,712.04 Q198.191,711.532 198.188,710.809 Q198.185,710.085 197.88,709.142 Q197.576,708.199 197.041,706.985 Q196.438,705.616 195.913,704.677 Q195.387,703.739 194.818,703.247 Q194.248,702.755 193.564,702.721 Q192.881,702.688 191.947,703.1 Q191.139,703.456 190.795,703.942 Q190.452,704.428 190.486,705.137 Q190.52,705.847 190.869,706.807 Q191.219,707.768 191.781,709.044 Q192.329,710.288 192.825,711.203 Q193.321,712.118 193.876,712.616 Q194.43,713.115 195.103,713.209 Q195.776,713.302 196.678,712.905 z" fill="#000000"/>
    </g>
  </g>
</svg>
